<?xml version="1.0" encoding="utf-8"?>

<!-- License Agreement at http://iconmonstr.com/license/ -->

<!DOCTYPE svg PUBLIC "-//W3C//DTD SVG 1.1//EN" "http://www.w3.org/Graphics/SVG/1.1/DTD/svg11.dtd">
<svg version="1.1" xmlns="http://www.w3.org/2000/svg" xmlns:xlink="http://www.w3.org/1999/xlink" x="0px" y="0px"
	 width="512px" height="512px" viewBox="0 0 512 512" style="enable-background:new 0 0 512 512;" xml:space="preserve">
<path id="paintbrush-6-icon" d="M118.672,424.778c78.741,6.521,50.544-77.132,123.401-77.903l31.55,26.338
	C281.486,468.265,165.209,489.488,118.672,424.778z M360.125,302.636c24.493-38.44,100.367-167.347,100.367-167.347
	c6.035-10.687-7.377-21.852-16.748-13.965c0,0-112.821,98.095-146.099,129.184c-26.302,24.584-26.419,35.815-34.937,76.335
	l28.835,24.04C329.767,335.174,340.763,333.046,360.125,302.636z M154.146,369.189c11.433-19.48,30.008-51.114,76.343-56.009
	c7.444-35.825,10.428-56.646,43.721-87.76c23.57-22.011,84.776-75.689,120.533-106.921c-17.166-37.903-71.079-69.06-140.382-68.489
	C140.633,50.94,49.102,143.813,50.007,257.574c0.402,49.974,18.558,95.621,48.415,131.061
	C126.183,396.011,139.208,394.62,154.146,369.189z M273.473,97.352c18.909-0.109,34.416,15.121,34.601,34.04
	c0.066,18.935-15.139,34.483-34.099,34.609c-18.977,0.159-34.466-15.104-34.567-34.064
	C239.207,112.95,254.461,97.502,273.473,97.352z M170.541,131.693c18.91-0.176,34.467,15.062,34.534,34.039
	c0.201,18.994-15.105,34.425-33.998,34.601c-18.977,0.134-34.483-15.112-34.602-34.115
	C136.325,147.292,151.53,131.818,170.541,131.693z M136.141,234.666c18.994-0.125,34.5,15.146,34.601,34.072
	c0.167,18.952-15.104,34.468-34.098,34.601c-18.977,0.135-34.417-15.121-34.517-34.081
	C101.959,250.29,117.23,234.842,136.141,234.666z M308.341,381.125c0.369,38.423-15.138,63.838-28.866,78.74
	c-0.252,0.269-0.537,0.504-0.789,0.755c90.208-10.126,155.555-73.879,107.559-135.42C362.674,360.338,342.74,367.11,308.341,381.125
	z"/>
</svg>
