<?xml version="1.0" standalone="no"?>
<!DOCTYPE svg PUBLIC "-//W3C//DTD SVG 20010904//EN"
 "http://www.w3.org/TR/2001/REC-SVG-20010904/DTD/svg10.dtd">
<svg version="1.0" xmlns="http://www.w3.org/2000/svg"
 width="481.000000pt" height="626.000000pt" viewBox="0 0 481.000000 626.000000"
 preserveAspectRatio="xMidYMid meet">
<metadata>
Created by potrace 1.13, written by Peter Selinger 2001-2015
</metadata>
<g transform="translate(0.000000,626.000000) scale(0.100000,-0.100000)"
fill="#000000" stroke="none">
<path d="M2521 4823 c-129 -26 -250 -103 -369 -232 -146 -159 -211 -300 -205
-446 1 -38 8 -90 15 -114 l13 -44 5 44 c3 24 1 64 -4 89 -9 47 -10 99 -2 108
3 2 19 7 37 11 25 5 33 12 34 31 1 14 -5 31 -14 38 -13 11 -13 13 -1 9 9 -2
31 17 54 45 37 47 39 48 62 33 30 -20 38 -19 29 3 -5 13 -3 14 6 5 6 -6 13
-23 14 -36 3 -20 -2 -26 -26 -31 -16 -3 -36 -3 -46 1 -12 5 -15 2 -10 -9 3 -9
-3 -25 -15 -37 -26 -28 -41 -81 -28 -97 8 -8 4 -13 -14 -18 -22 -5 -45 -46
-25 -46 14 0 11 -21 -5 -39 -12 -14 -12 -21 3 -51 17 -37 12 -36 119 -28 31 2
32 3 16 15 -10 7 -23 12 -28 10 -12 -4 -56 32 -56 45 0 5 9 7 20 3 15 -5 18
-3 14 8 -9 23 14 30 26 8 8 -16 6 -22 -7 -30 -10 -5 -15 -13 -10 -17 13 -13
47 28 47 57 0 29 14 46 25 29 10 -17 19 -11 33 20 16 34 28 38 37 11 8 -28 -3
-48 -36 -61 -20 -9 -29 -19 -29 -36 0 -29 16 -32 23 -4 3 11 13 20 22 20 9 0
13 5 10 10 -4 6 12 10 40 10 28 0 44 -4 40 -10 -3 -5 -2 -10 4 -10 5 0 11 -10
13 -22 2 -15 16 -29 41 -41 43 -20 58 -16 50 13 -3 11 -9 18 -13 15 -12 -8
-40 42 -34 60 4 9 3 15 -2 14 -24 -4 -54 2 -54 12 0 6 -10 19 -22 29 -17 13
-20 21 -11 31 6 8 14 45 18 83 4 38 9 75 12 82 14 38 134 96 149 73 3 -5 0 -9
-5 -9 -6 0 -11 -8 -11 -17 0 -15 4 -13 20 7 20 26 21 26 38 -5 6 -11 12 -14
12 -7 0 8 10 22 23 33 l22 18 -22 1 c-39 0 -27 37 19 57 22 10 29 9 39 -3 14
-17 73 -12 96 8 7 5 28 10 47 10 29 0 37 5 48 29 7 16 18 29 24 29 34 0 74
-14 74 -26 0 -8 7 -14 15 -14 9 0 15 -9 15 -23 0 -13 6 -29 12 -35 10 -10 10
-17 0 -32 -14 -22 -6 -50 20 -68 10 -7 18 -21 18 -31 0 -10 7 -24 15 -31 9 -7
15 -29 15 -51 l0 -39 -39 6 -39 6 0 -35 c0 -20 -3 -41 -7 -47 -4 -6 -1 -17 5
-25 8 -10 10 -30 5 -61 -4 -27 -2 -50 4 -58 7 -9 7 -22 -1 -43 -14 -38 -5 -63
23 -63 21 0 21 -1 6 -18 -21 -23 -22 -56 -2 -72 9 -7 13 -15 11 -17 -3 -3 1
-11 7 -18 14 -15 41 1 30 18 -4 7 0 8 12 3 11 -4 25 0 37 10 21 20 37 11 19
-10 -7 -8 -10 -20 -7 -25 4 -5 2 -12 -3 -16 -6 -3 -8 -12 -4 -20 3 -9 -2 -27
-12 -41 -16 -24 -17 -25 -30 -7 -13 17 -15 17 -31 1 -15 -15 -20 -15 -44 -3
-24 12 -28 12 -41 -4 -9 -9 -14 -22 -11 -29 2 -8 -5 -10 -25 -6 -20 4 -33 1
-42 -10 -11 -13 -17 -14 -28 -4 -36 29 -192 -7 -193 -44 0 -21 -16 -24 -23 -5
-3 6 -6 -3 -6 -21 -1 -29 -4 -32 -26 -28 -13 3 -29 8 -35 11 -6 4 -17 1 -25
-5 -11 -10 -14 -7 -12 17 3 37 -24 38 -34 0 -6 -22 -4 -30 9 -35 9 -4 17 -13
17 -21 0 -8 6 -16 13 -19 7 -2 10 2 6 12 -13 33 8 15 22 -19 11 -28 18 -34 31
-27 9 5 24 7 35 4 15 -4 16 -7 6 -19 -13 -17 3 -33 35 -33 9 0 17 -6 17 -14 0
-7 7 -19 15 -26 22 -18 7 -33 -26 -26 -16 3 -29 1 -29 -4 0 -6 -12 -10 -26
-10 -20 0 -25 4 -20 16 5 13 2 15 -15 11 -12 -3 -31 0 -43 8 -14 9 -26 11 -36
5 -17 -10 -24 -6 90 -45 64 -22 92 -26 191 -26 65 1 123 3 131 6 8 3 46 10 84
15 104 13 140 25 201 67 31 21 77 52 102 69 44 29 101 101 167 210 17 29 43
98 59 159 26 102 27 115 20 234 -12 189 -7 165 -56 276 -24 55 -80 141 -130
202 -59 71 -149 134 -221 154 -33 8 -38 14 -38 39 0 33 -15 41 -80 38 -30 -1
-62 7 -95 22 -42 21 -70 25 -183 30 -84 3 -154 1 -191 -7z"/>
<path d="M4118 3559 c58 -33 63 -43 17 -30 -25 6 -32 4 -40 -13 -7 -14 -19
-20 -33 -18 -12 2 -30 -4 -39 -13 -15 -16 -17 -15 -29 7 -12 23 -13 22 -12 -9
1 -26 4 -31 17 -24 31 16 65 -10 55 -42 -3 -10 1 -19 10 -23 11 -4 13 -11 6
-23 -11 -22 -2 -61 14 -61 7 0 19 11 26 25 15 28 73 64 63 39 -3 -8 -9 -14
-14 -14 -10 0 -30 -42 -23 -49 1 -1 27 9 58 24 56 27 75 50 56 69 -18 18 -11
33 13 29 16 -3 28 4 44 25 l21 29 -35 17 c-46 22 -210 86 -220 86 -5 0 16 -14
45 -31z"/>
<path d="M2220 3550 c0 -5 18 -27 39 -49 21 -22 37 -42 34 -44 -2 -3 6 -8 18
-12 13 -4 29 -14 37 -21 7 -8 21 -14 30 -14 9 0 26 -7 36 -15 25 -19 36 -19
36 1 0 9 -8 18 -19 21 -13 3 -21 17 -25 44 -3 21 -11 39 -16 39 -6 0 -10 -4
-10 -9 0 -16 -39 -19 -52 -3 -11 13 -10 14 13 9 21 -6 30 -2 43 18 9 13 16 26
16 28 0 13 -45 13 -68 1 -31 -16 -46 -18 -38 -5 3 5 -4 11 -17 15 -33 9 -57 7
-57 -4z"/>
<path d="M1736 2915 c-66 -23 -122 -75 -82 -75 9 0 21 -9 28 -20 7 -11 23 -20
35 -20 26 0 73 -47 73 -72 0 -25 21 -23 27 2 3 11 10 20 15 20 5 0 6 5 3 10
-3 6 3 10 14 10 12 0 21 -4 21 -10 0 -5 7 -10 15 -10 11 0 15 -11 15 -40 0
-29 4 -40 15 -40 12 0 14 8 10 38 -3 20 -6 44 -6 52 -1 53 -14 91 -40 119 -16
18 -29 30 -29 27 0 -3 -16 2 -35 10 -19 7 -36 14 -37 14 -2 -1 -21 -7 -42 -15z"/>
<path d="M2640 2846 c0 -58 -7 -66 -38 -50 -24 12 -27 12 -30 -1 -2 -10 -15
-15 -36 -15 -31 0 -33 2 -32 33 0 17 -3 32 -9 32 -5 0 -10 -25 -11 -55 -1 -81
-13 -170 -29 -210 -7 -19 -21 -63 -31 -97 -11 -35 -22 -63 -26 -63 -3 0 -9
-19 -13 -42 -4 -23 -16 -55 -26 -72 -10 -17 -19 -36 -19 -43 0 -13 -34 -69
-70 -115 -13 -17 -22 -45 -23 -70 -2 -39 -5 -43 -29 -46 -32 -4 -102 -78 -93
-100 2 -7 1 -11 -4 -8 -5 3 -15 -2 -22 -11 -15 -17 -20 -63 -7 -63 14 0 2 -43
-16 -56 -10 -7 -15 -17 -12 -22 3 -5 -8 -8 -24 -7 -26 2 -28 0 -19 -18 8 -14
8 -22 -1 -31 -8 -8 -10 -7 -5 7 4 10 2 17 -4 17 -14 0 -14 32 -1 48 5 7 0 3
-12 -7 -15 -15 -19 -23 -11 -33 14 -18 23 -58 13 -58 -4 0 -11 12 -15 28 -3
15 -14 36 -24 47 -23 26 -53 103 -45 117 3 5 15 8 25 5 21 -6 28 3 46 53 24
67 26 116 8 170 -17 50 -18 51 -32 30 -10 -14 -13 -32 -9 -52 4 -18 1 -37 -6
-46 -10 -11 -7 -18 14 -33 32 -23 28 -66 -9 -80 -33 -12 -63 8 -65 46 0 16 -1
37 -2 45 -1 8 -9 16 -19 18 -9 2 -17 11 -17 20 0 9 -12 28 -25 41 -14 13 -23
17 -19 8 3 -8 0 -18 -5 -22 -18 -10 -41 -74 -41 -112 0 -52 -40 -111 -96 -141
-28 -15 -76 -8 -89 13 -5 10 -26 34 -46 55 l-35 38 -26 -57 c-23 -49 -39 -94
-43 -126 -1 -5 -7 -23 -14 -40 -38 -95 -47 -115 -51 -115 -11 0 -1 -68 14 -98
16 -31 63 -72 101 -87 11 -5 43 -11 70 -14 53 -6 54 -8 40 -66 -6 -24 -70 -66
-89 -59 -8 3 -17 1 -21 -5 -3 -6 0 -9 7 -6 9 4 14 -3 16 -19 1 -19 -4 -25 -26
-29 -34 -7 -36 -4 -21 25 12 23 12 23 -10 4 -11 -11 -21 -29 -21 -40 0 -21
-31 -56 -49 -56 -5 0 -18 -11 -28 -24 -19 -24 -59 -36 -78 -24 -13 8 -163
-102 -164 -120 -1 -7 -6 -10 -11 -7 -6 3 -27 -7 -47 -24 -21 -17 -41 -31 -45
-31 -4 0 -31 -18 -60 -40 -29 -22 -60 -40 -70 -40 -9 0 -18 -4 -20 -8 -1 -4
-34 -30 -71 -56 -38 -27 -73 -59 -78 -72 -4 -13 -14 -24 -21 -24 -7 0 -19 -9
-26 -20 -7 -12 -17 -18 -23 -15 -10 7 -45 -12 -72 -39 -9 -9 -37 -32 -62 -51
-40 -31 -52 -35 -99 -34 -29 1 -58 -1 -65 -5 -27 -17 -231 59 -231 86 0 5 -5
8 -11 8 -20 0 27 -61 77 -101 27 -21 76 -57 109 -78 33 -22 65 -44 71 -49 5
-5 48 -26 93 -47 87 -39 173 -50 217 -28 10 6 39 13 64 16 52 7 202 70 275
115 28 17 70 44 95 59 47 29 124 83 150 106 8 8 35 27 60 44 25 17 72 55 106
84 34 30 97 83 140 119 153 126 404 387 514 535 133 179 159 217 200 290 37
69 49 85 61 85 4 0 8 -8 8 -17 1 -10 3 -34 6 -53 9 -62 28 -391 30 -532 2 -93
7 -143 15 -153 10 -12 10 -15 0 -15 -10 0 -11 -17 -7 -70 3 -38 10 -77 15 -86
8 -15 12 -14 27 10 10 15 19 38 20 51 2 13 19 40 38 60 20 20 43 53 52 73 10
20 34 55 55 77 21 22 58 68 82 102 99 141 247 303 368 405 30 26 71 60 91 77
45 38 53 39 44 4 -4 -16 -13 -53 -21 -83 -7 -30 -22 -86 -33 -125 -11 -38 -21
-81 -21 -95 0 -14 -9 -43 -20 -65 -11 -22 -19 -50 -20 -62 0 -11 -13 -61 -29
-111 -19 -59 -32 -121 -36 -183 -4 -52 -11 -108 -16 -126 -6 -17 -11 -128 -12
-245 l-2 -213 30 -55 c29 -53 32 -55 67 -52 20 2 39 -1 43 -7 10 -18 59 -13
133 14 38 14 83 25 100 25 17 0 68 13 114 29 46 15 124 38 173 50 50 11 101
29 115 39 43 32 123 292 90 292 -6 0 -27 -7 -48 -16 -52 -22 -90 -34 -137 -40
-22 -4 -48 -10 -57 -15 -28 -15 -56 -10 -96 15 -61 39 -101 99 -133 201 -27
87 -26 348 1 620 11 116 20 235 19 265 -2 66 3 95 47 265 43 172 64 284 64
354 0 32 5 63 13 70 24 25 -49 -25 -109 -74 -52 -43 -116 -120 -83 -99 7 4 10
1 7 -7 -3 -8 -11 -13 -18 -11 -16 4 -50 -27 -50 -45 0 -8 -4 -12 -9 -9 -13 9
-47 -37 -72 -97 -6 -16 -17 -26 -23 -24 -7 3 -18 -5 -26 -16 -12 -21 -12 -21
6 -7 18 14 18 14 5 -2 -7 -10 -17 -16 -21 -13 -15 9 -81 -82 -91 -125 -3 -14
-10 -24 -16 -23 -6 1 -9 -6 -6 -17 4 -14 -3 -24 -26 -37 -17 -10 -31 -24 -31
-30 0 -7 -4 -13 -9 -13 -15 0 -81 -73 -81 -90 0 -8 -16 -35 -35 -59 -36 -45
-42 -57 -25 -46 6 4 5 -5 -2 -19 -6 -15 -18 -25 -27 -24 -10 2 -17 -6 -19 -19
-2 -13 -10 -23 -17 -23 -17 0 -179 -224 -198 -273 -3 -9 -11 -17 -16 -17 -17
0 -22 19 -10 41 7 14 14 133 20 338 10 357 20 453 56 524 13 27 30 77 38 111
7 33 26 99 41 146 34 103 38 216 10 294 -13 39 -16 66 -10 128 4 43 4 78 0 78
-3 0 -6 -15 -6 -34z m-1620 -2253 c0 -3 -7 -15 -17 -25 -15 -17 -15 -18 10
-18 32 0 35 -20 7 -45 -11 -10 -20 -24 -20 -32 0 -11 -4 -11 -21 -3 -17 10
-24 7 -45 -15 -28 -30 -86 -57 -118 -54 -11 1 -29 -1 -39 -6 -9 -4 -28 -4 -41
-1 -23 6 -24 9 -14 36 7 23 24 37 64 56 30 14 54 29 54 34 0 7 94 57 135 71
27 10 45 10 45 2z"/>
<path d="M1506 2641 c-4 -6 -4 -16 -1 -21 4 -6 2 -16 -3 -23 -5 -7 -12 -25
-16 -42 -11 -45 -34 -75 -58 -75 -12 0 -39 17 -61 38 l-38 37 7 -45 c3 -25 19
-85 34 -135 16 -49 32 -105 37 -124 12 -49 31 -51 27 -4 -2 21 -6 48 -9 59 -3
12 2 27 9 34 12 9 23 4 55 -28 23 -22 41 -44 41 -50 0 -28 22 -19 36 14 12 30
13 45 4 83 -15 63 -30 155 -37 221 -5 57 -16 80 -27 61z"/>
</g>
</svg>
